<svg width="126" height="27" viewBox="0 0 126 27" fill="none" xmlns="http://www.w3.org/2000/svg">
<path d="M1.60766 26.074C1.39166 25.234 1.20566 24.448 1.04966 23.716C0.905656 22.996 0.797656 22.342 0.725656 21.754C0.653656 21.178 0.617656 20.686 0.617656 20.278C0.617656 19.438 0.755656 18.736 1.03166 18.172C1.31966 17.608 1.69766 17.158 2.16566 16.822C2.64566 16.474 3.16766 16.228 3.73166 16.084C4.29566 15.928 4.85966 15.85 5.42366 15.85C5.99966 15.85 6.52766 15.898 7.00766 15.994C7.03166 15.622 7.00166 15.286 6.91766 14.986C6.84566 14.686 6.73166 14.428 6.57566 14.212C6.43166 13.996 6.25166 13.828 6.03566 13.708C5.83166 13.588 5.60966 13.528 5.36966 13.528C5.14166 13.528 4.91366 13.588 4.68566 13.708C4.45766 13.816 4.24166 13.978 4.03766 14.194C3.84566 14.41 3.65966 14.686 3.47966 15.022L1.51766 13.942C1.84166 13.21 2.22566 12.634 2.66966 12.214C3.11366 11.782 3.57566 11.476 4.05566 11.296C4.54766 11.104 5.02766 11.008 5.49566 11.008C6.21566 11.008 6.83366 11.164 7.34966 11.476C7.87766 11.776 8.30366 12.172 8.62766 12.664C8.95166 13.144 9.19166 13.66 9.34766 14.212C9.50366 14.764 9.58166 15.292 9.58166 15.796C9.58166 16.18 9.53966 16.564 9.45566 16.948C9.38366 17.32 9.29366 17.656 9.18566 17.956C9.08966 18.256 8.99366 18.49 8.89766 18.658C8.23766 18.478 7.61366 18.346 7.02566 18.262C6.43766 18.178 5.90366 18.154 5.42366 18.19C4.95566 18.214 4.54766 18.31 4.19966 18.478C3.86366 18.634 3.59966 18.868 3.40766 19.18C3.22766 19.492 3.13766 19.888 3.13766 20.368C3.13766 20.812 3.17366 21.316 3.24566 21.88C3.31766 22.456 3.41966 23.05 3.55166 23.662C3.68366 24.274 3.83366 24.88 4.00166 25.48L1.60766 26.074ZM15.915 19.09C14.799 19.09 13.935 18.976 13.323 18.748C12.723 18.52 12.303 18.166 12.063 17.686C11.823 17.194 11.685 16.576 11.649 15.832L11.271 5.824H13.791L14.169 14.626C14.193 15.178 14.253 15.592 14.349 15.868C14.445 16.144 14.625 16.33 14.889 16.426C15.165 16.522 15.567 16.57 16.095 16.57C16.551 16.57 16.875 16.69 17.067 16.93C17.271 17.158 17.373 17.446 17.373 17.794C17.373 18.166 17.247 18.478 16.995 18.73C16.743 18.97 16.383 19.09 15.915 19.09ZM21.9875 22.96C21.1355 22.96 20.3495 22.774 19.6295 22.402C18.9095 22.042 18.3335 21.472 17.9015 20.692C17.4695 19.924 17.2535 18.934 17.2535 17.722C17.2535 16.654 17.3795 15.676 17.6315 14.788C17.8835 13.888 18.2255 13.114 18.6575 12.466C19.1015 11.806 19.5995 11.296 20.1515 10.936C20.7035 10.576 21.2855 10.396 21.8975 10.396C22.3535 10.396 22.7855 10.528 23.1935 10.792C23.6015 11.044 23.9375 11.416 24.2015 11.908C24.4655 12.4 24.5975 13 24.5975 13.708C24.5975 14.092 24.5195 14.524 24.3635 15.004C24.2075 15.484 23.9315 15.94 23.5355 16.372C23.1515 16.792 22.6115 17.128 21.9155 17.38L22.3475 15.958C22.7315 16.102 23.1455 16.222 23.5895 16.318C24.0335 16.402 24.4955 16.468 24.9755 16.516C25.4555 16.552 25.9235 16.57 26.3795 16.57C26.8355 16.57 27.1595 16.69 27.3515 16.93C27.5555 17.158 27.6575 17.446 27.6575 17.794C27.6575 18.166 27.5315 18.478 27.2795 18.73C27.0275 18.97 26.6675 19.09 26.1995 19.09C25.8635 19.09 25.4795 19.072 25.0475 19.036C24.6275 19 24.2135 18.952 23.8055 18.892C23.4095 18.832 23.0735 18.766 22.7975 18.694L24.7595 18.244C25.0355 18.58 25.2215 18.952 25.3175 19.36C25.4255 19.78 25.4375 20.2 25.3535 20.62C25.2815 21.04 25.1075 21.424 24.8315 21.772C24.5675 22.132 24.1955 22.42 23.7155 22.636C23.2475 22.852 22.6715 22.96 21.9875 22.96ZM15.9395 19.09L16.1195 16.57C16.3235 16.57 16.5935 16.57 16.9295 16.57C17.2775 16.57 17.5835 16.57 17.8475 16.57L18.0455 18.856C17.6975 18.928 17.3195 18.982 16.9115 19.018C16.5155 19.066 16.1915 19.09 15.9395 19.09ZM21.9155 20.476C22.1555 20.476 22.3535 20.434 22.5095 20.35C22.6655 20.278 22.7795 20.17 22.8515 20.026C22.9355 19.894 22.9775 19.744 22.9775 19.576C22.9775 19.432 22.9295 19.27 22.8335 19.09C22.7375 18.91 22.5575 18.754 22.2935 18.622C22.0295 18.478 21.6515 18.406 21.1595 18.406C20.9795 18.406 20.7815 18.418 20.5655 18.442C20.3615 18.466 20.1395 18.502 19.8995 18.55C19.6595 18.586 19.4135 18.634 19.1615 18.694L19.2515 16.534C19.7075 16.498 20.1155 16.426 20.4755 16.318C20.8355 16.198 21.1355 16.042 21.3755 15.85C21.6275 15.646 21.8195 15.4 21.9515 15.112C22.0835 14.824 22.1495 14.488 22.1495 14.104C22.1495 13.912 22.1315 13.726 22.0955 13.546C22.0595 13.354 22.0055 13.198 21.9335 13.078C21.8615 12.946 21.7715 12.88 21.6635 12.88C21.4715 12.88 21.2675 12.988 21.0515 13.204C20.8355 13.42 20.6315 13.732 20.4395 14.14C20.2475 14.536 20.0855 15.016 19.9535 15.58C19.8335 16.132 19.7735 16.75 19.7735 17.434C19.7735 18.01 19.8335 18.496 19.9535 18.892C20.0735 19.276 20.2355 19.582 20.4395 19.81C20.6435 20.05 20.8715 20.218 21.1235 20.314C21.3875 20.422 21.6515 20.476 21.9155 20.476ZM26.2227 19.09L26.4027 16.57C26.7027 16.57 26.9307 16.51 27.0867 16.39C27.2427 16.27 27.3987 16.06 27.5547 15.76C27.7107 15.46 27.9267 15.052 28.2027 14.536C28.5027 13.96 28.8147 13.48 29.1387 13.096C29.4627 12.7 29.7867 12.388 30.1107 12.16C30.4467 11.92 30.7767 11.752 31.1007 11.656C31.4367 11.548 31.7667 11.494 32.0907 11.494C32.5347 11.494 32.9487 11.59 33.3327 11.782C33.7287 11.962 34.1067 12.28 34.4667 12.736C34.8267 13.18 35.1687 13.792 35.4927 14.572C35.7207 15.112 35.9487 15.526 36.1767 15.814C36.4047 16.102 36.6387 16.3 36.8787 16.408C37.1307 16.516 37.3827 16.57 37.6347 16.57C38.0907 16.57 38.4147 16.69 38.6067 16.93C38.7987 17.158 38.8947 17.446 38.8947 17.794C38.8947 18.166 38.7687 18.478 38.5167 18.73C38.2647 18.97 37.9107 19.09 37.4547 19.09C36.8667 19.09 36.3327 18.994 35.8527 18.802C35.3727 18.61 34.9947 18.322 34.7187 17.938L35.2407 17.542C35.1327 17.794 34.9707 18.058 34.7547 18.334C34.5507 18.61 34.2807 18.844 33.9447 19.036C33.6207 19.228 33.2307 19.324 32.7747 19.324C32.4747 19.324 32.1207 19.264 31.7127 19.144C31.3167 19.036 30.9027 18.85 30.4707 18.586C30.0507 18.31 29.6607 17.938 29.3007 17.47C29.0727 17.89 28.8207 18.22 28.5447 18.46C28.2687 18.688 27.9447 18.85 27.5727 18.946C27.2007 19.042 26.7507 19.09 26.2227 19.09ZM30.3447 15.346C30.4647 15.526 30.6087 15.706 30.7767 15.886C30.9447 16.066 31.1307 16.228 31.3347 16.372C31.5387 16.504 31.7547 16.612 31.9827 16.696C32.2227 16.78 32.4567 16.822 32.6847 16.822C32.9247 16.822 33.1227 16.732 33.2787 16.552C33.4347 16.36 33.4407 16.078 33.2967 15.706C33.2367 15.55 33.1527 15.376 33.0447 15.184C32.9487 14.98 32.8347 14.788 32.7027 14.608C32.5827 14.428 32.4447 14.278 32.2887 14.158C32.1447 14.038 31.9947 13.978 31.8387 13.978C31.6827 13.978 31.5207 14.026 31.3527 14.122C31.1847 14.218 31.0167 14.368 30.8487 14.572C30.6807 14.764 30.5127 15.022 30.3447 15.346ZM37.4551 19.09L37.6351 16.57C38.1871 16.57 38.5831 16.516 38.8231 16.408C39.0631 16.288 39.2071 16.072 39.2551 15.76C39.3031 15.436 39.3151 14.968 39.2911 14.356L38.9671 5.824H41.5051L41.8651 14.536C41.8891 15.232 41.8591 15.862 41.7751 16.426C41.7031 16.978 41.5171 17.452 41.2171 17.848C40.9291 18.244 40.4791 18.55 39.8671 18.766C39.2671 18.982 38.4631 19.09 37.4551 19.09ZM44.2388 19L43.8608 5.824H46.3808L46.7588 19H44.2388ZM61.8947 19.09C61.0427 19.09 60.3047 18.982 59.6807 18.766C59.0687 18.538 58.5947 18.178 58.2587 17.686C57.9227 17.182 57.7307 16.51 57.6827 15.67L57.3587 8.416H59.8967L60.2027 14.788C60.2267 15.28 60.3047 15.658 60.4367 15.922C60.5807 16.174 60.7847 16.348 61.0487 16.444C61.3127 16.528 61.6547 16.57 62.0747 16.57C62.5307 16.57 62.8547 16.69 63.0467 16.93C63.2387 17.158 63.3347 17.446 63.3347 17.794C63.3347 18.166 63.2087 18.478 62.9567 18.73C62.7167 18.97 62.3627 19.09 61.8947 19.09ZM58.6007 17.416C57.7967 17.596 57.0227 17.68 56.2787 17.668C55.5347 17.644 54.8687 17.512 54.2807 17.272C53.6927 17.02 53.2247 16.66 52.8767 16.192C52.5407 15.724 52.3727 15.13 52.3727 14.41C52.3727 13.774 52.5107 13.198 52.7867 12.682C53.0747 12.154 53.4707 11.692 53.9747 11.296C54.4907 10.9 55.0907 10.564 55.7747 10.288C56.4587 10.012 57.2027 9.802 58.0067 9.658L58.2587 12.214C57.7427 12.238 57.2747 12.31 56.8547 12.43C56.4467 12.538 56.0927 12.682 55.7927 12.862C55.5047 13.042 55.2827 13.246 55.1267 13.474C54.9707 13.69 54.8927 13.924 54.8927 14.176C54.8927 14.38 54.9647 14.548 55.1087 14.68C55.2527 14.812 55.4447 14.92 55.6847 15.004C55.9247 15.076 56.2007 15.118 56.5127 15.13C56.8247 15.142 57.1427 15.124 57.4667 15.076C57.8027 15.028 58.1327 14.95 58.4567 14.842L58.6007 17.416ZM58.6547 6.562C58.3067 6.562 58.0067 6.442 57.7547 6.202C57.5147 5.95 57.3947 5.656 57.3947 5.32C57.3947 4.972 57.5147 4.672 57.7547 4.42C58.0067 4.168 58.3067 4.042 58.6547 4.042C58.9907 4.042 59.2787 4.168 59.5187 4.42C59.7587 4.672 59.8787 4.972 59.8787 5.32C59.8787 5.656 59.7587 5.95 59.5187 6.202C59.2787 6.442 58.9907 6.562 58.6547 6.562ZM55.5407 6.544C55.1927 6.544 54.8927 6.424 54.6407 6.184C54.4007 5.932 54.2807 5.638 54.2807 5.302C54.2807 4.954 54.4007 4.654 54.6407 4.402C54.8927 4.15 55.1927 4.024 55.5407 4.024C55.8767 4.024 56.1647 4.15 56.4047 4.402C56.6447 4.654 56.7647 4.954 56.7647 5.302C56.7647 5.638 56.6447 5.932 56.4047 6.184C56.1647 6.424 55.8767 6.544 55.5407 6.544ZM61.8887 19.09L62.0687 16.57C62.3687 16.57 62.5967 16.51 62.7527 16.39C62.9087 16.27 63.0647 16.06 63.2207 15.76C63.3767 15.46 63.5927 15.052 63.8687 14.536C64.1687 13.96 64.4807 13.48 64.8047 13.096C65.1287 12.7 65.4527 12.388 65.7767 12.16C66.1127 11.92 66.4427 11.752 66.7667 11.656C67.1027 11.548 67.4327 11.494 67.7567 11.494C68.2007 11.494 68.6147 11.59 68.9987 11.782C69.3947 11.962 69.7727 12.28 70.1327 12.736C70.4927 13.18 70.8347 13.792 71.1587 14.572C71.3867 15.112 71.6147 15.526 71.8427 15.814C72.0707 16.102 72.3047 16.3 72.5447 16.408C72.7967 16.516 73.0487 16.57 73.3007 16.57C73.7567 16.57 74.0807 16.69 74.2727 16.93C74.4647 17.158 74.5607 17.446 74.5607 17.794C74.5607 18.166 74.4347 18.478 74.1827 18.73C73.9307 18.97 73.5767 19.09 73.1207 19.09C72.5327 19.09 71.9987 18.994 71.5187 18.802C71.0387 18.61 70.6607 18.322 70.3847 17.938L70.9067 17.542C70.7987 17.794 70.6367 18.058 70.4207 18.334C70.2167 18.61 69.9467 18.844 69.6107 19.036C69.2867 19.228 68.8967 19.324 68.4407 19.324C68.1407 19.324 67.7867 19.264 67.3787 19.144C66.9827 19.036 66.5687 18.85 66.1367 18.586C65.7167 18.31 65.3267 17.938 64.9667 17.47C64.7387 17.89 64.4867 18.22 64.2107 18.46C63.9347 18.688 63.6107 18.85 63.2387 18.946C62.8667 19.042 62.4167 19.09 61.8887 19.09ZM66.0107 15.346C66.1307 15.526 66.2747 15.706 66.4427 15.886C66.6107 16.066 66.7967 16.228 67.0007 16.372C67.2047 16.504 67.4207 16.612 67.6487 16.696C67.8887 16.78 68.1227 16.822 68.3507 16.822C68.5907 16.822 68.7887 16.732 68.9447 16.552C69.1007 16.36 69.1067 16.078 68.9627 15.706C68.9027 15.55 68.8187 15.376 68.7107 15.184C68.6147 14.98 68.5007 14.788 68.3687 14.608C68.2487 14.428 68.1107 14.278 67.9547 14.158C67.8107 14.038 67.6607 13.978 67.5047 13.978C67.3487 13.978 67.1867 14.026 67.0187 14.122C66.8507 14.218 66.6827 14.368 66.5147 14.572C66.3467 14.764 66.1787 15.022 66.0107 15.346ZM73.1211 19.09L73.3011 16.57C73.8291 16.57 74.2431 16.534 74.5431 16.462C74.8551 16.39 75.0771 16.258 75.2091 16.066C75.3411 15.862 75.4071 15.574 75.4071 15.202C75.4071 14.866 75.3591 14.464 75.2631 13.996C75.1791 13.528 75.0651 13.042 74.9211 12.538C74.7771 12.034 74.6331 11.572 74.4891 11.152L76.9731 10.468C77.1171 10.876 77.2611 11.35 77.4051 11.89C77.5491 12.43 77.6691 12.988 77.7651 13.564C77.8731 14.128 77.9271 14.674 77.9271 15.202C77.9271 15.862 77.8431 16.42 77.6751 16.876C77.5071 17.32 77.2731 17.692 76.9731 17.992C76.6851 18.28 76.3371 18.508 75.9291 18.676C75.5331 18.832 75.0951 18.94 74.6151 19C74.1351 19.06 73.6371 19.09 73.1211 19.09ZM73.8231 8.596L73.5171 7.336C73.9371 7.264 74.2491 7.204 74.4531 7.156C74.6691 7.108 74.8971 7.054 75.1371 6.994L74.9571 7.444C74.6451 7.336 74.3451 7.126 74.0571 6.814C73.7811 6.49 73.6431 6.124 73.6431 5.716C73.6431 5.284 73.7391 4.936 73.9311 4.672C74.1231 4.408 74.3691 4.216 74.6691 4.096C74.9691 3.976 75.2811 3.916 75.6051 3.916C75.7851 3.916 75.9531 3.928 76.1091 3.952C76.2771 3.976 76.4271 4.012 76.5591 4.06L76.4151 5.356C76.2951 5.332 76.1751 5.308 76.0551 5.284C75.9351 5.26 75.8031 5.248 75.6591 5.248C75.5031 5.248 75.3591 5.302 75.2271 5.41C75.1071 5.506 75.0471 5.626 75.0471 5.77C75.0471 5.974 75.1191 6.154 75.2631 6.31C75.4071 6.466 75.5751 6.592 75.7671 6.688C75.9711 6.772 76.1391 6.82 76.2711 6.832L75.2811 6.94C75.6051 6.856 75.9111 6.772 76.1991 6.688C76.4871 6.592 76.7571 6.496 77.0091 6.4L77.3691 7.606C77.0691 7.714 76.7151 7.834 76.3071 7.966C75.9111 8.086 75.4971 8.2 75.0651 8.308C74.6451 8.416 74.2311 8.512 73.8231 8.596ZM84.54 19.09C83.424 19.09 82.56 18.976 81.948 18.748C81.348 18.52 80.928 18.166 80.688 17.686C80.448 17.194 80.31 16.576 80.274 15.832L79.896 5.824H82.416L82.794 14.626C82.818 15.178 82.878 15.592 82.974 15.868C83.07 16.144 83.25 16.33 83.514 16.426C83.79 16.522 84.192 16.57 84.72 16.57C85.176 16.57 85.5 16.69 85.692 16.93C85.896 17.158 85.998 17.446 85.998 17.794C85.998 18.166 85.872 18.478 85.62 18.73C85.368 18.97 85.008 19.09 84.54 19.09ZM84.5645 19.09L84.7445 16.588C85.7405 16.588 86.5385 16.582 87.1385 16.57C87.7505 16.558 88.2245 16.534 88.5605 16.498C88.9085 16.45 89.1665 16.396 89.3345 16.336C89.5025 16.264 89.6465 16.186 89.7665 16.102C89.9105 15.994 90.0305 15.85 90.1265 15.67C90.2345 15.478 90.3185 15.226 90.3785 14.914C90.4385 14.602 90.4685 14.212 90.4685 13.744C90.4685 13.156 90.4145 12.664 90.3065 12.268C90.2105 11.86 90.0665 11.554 89.8745 11.35C89.6945 11.146 89.4725 11.044 89.2085 11.044C89.0165 11.044 88.8365 11.11 88.6685 11.242C88.5005 11.362 88.3625 11.53 88.2545 11.746C88.1465 11.962 88.0925 12.208 88.0925 12.484C88.0925 12.64 88.1345 12.778 88.2185 12.898C88.3025 13.018 88.4345 13.108 88.6145 13.168C88.7945 13.228 89.0225 13.258 89.2985 13.258C89.5625 13.258 89.8385 13.228 90.1265 13.168C90.4265 13.096 90.7025 13 90.9545 12.88L91.0265 15.022C90.8345 15.154 90.6125 15.274 90.3605 15.382C90.1085 15.49 89.8385 15.574 89.5505 15.634C89.2745 15.682 88.9925 15.706 88.7045 15.706C88.0685 15.706 87.5165 15.622 87.0485 15.454C86.5925 15.274 86.2385 14.986 85.9865 14.59C85.7345 14.194 85.6085 13.654 85.6085 12.97C85.6085 12.442 85.6985 11.92 85.8785 11.404C86.0585 10.876 86.3165 10.402 86.6525 9.982C86.9885 9.55 87.3845 9.208 87.8405 8.956C88.2965 8.692 88.8005 8.56 89.3525 8.56C90.1685 8.56 90.8405 8.8 91.3685 9.28C91.9085 9.748 92.3045 10.384 92.5565 11.188C92.8205 11.98 92.9525 12.862 92.9525 13.834C92.9525 14.686 92.8265 15.43 92.5745 16.066C92.3225 16.69 92.0225 17.182 91.6745 17.542C91.3865 17.842 91.0565 18.094 90.6845 18.298C90.3125 18.502 89.8565 18.664 89.3165 18.784C88.7885 18.892 88.1345 18.97 87.3545 19.018C86.5865 19.066 85.6565 19.09 84.5645 19.09ZM90.8825 6.922C90.5345 6.922 90.2345 6.802 89.9825 6.562C89.7425 6.31 89.6225 6.016 89.6225 5.68C89.6225 5.332 89.7425 5.032 89.9825 4.78C90.2345 4.528 90.5345 4.402 90.8825 4.402C91.2185 4.402 91.5065 4.528 91.7465 4.78C91.9865 5.032 92.1065 5.332 92.1065 5.68C92.1065 6.016 91.9865 6.31 91.7465 6.562C91.5065 6.802 91.2185 6.922 90.8825 6.922ZM87.7685 6.904C87.4205 6.904 87.1205 6.784 86.8685 6.544C86.6285 6.292 86.5085 5.998 86.5085 5.662C86.5085 5.314 86.6285 5.014 86.8685 4.762C87.1205 4.51 87.4205 4.384 87.7685 4.384C88.1045 4.384 88.3925 4.51 88.6325 4.762C88.8725 5.014 88.9925 5.314 88.9925 5.662C88.9925 5.998 88.8725 6.292 88.6325 6.544C88.3925 6.784 88.1045 6.904 87.7685 6.904Z" fill="white" fill-opacity="0.88"/>
<g clip-path="url(#clip0_1_182)">
<path d="M109.637 2.72742H103.091C102.489 2.72742 102 3.2158 102 3.8183V10.3636C102 10.9661 102.489 11.4545 103.091 11.4545H109.637C110.239 11.4545 110.727 10.9661 110.727 10.3636V3.8183C110.727 3.2158 110.239 2.72742 109.637 2.72742ZM108.546 9.27276H104.182V4.90918H108.546V9.27276ZM124.909 6.00007H114C113.398 6.00007 112.909 6.48845 112.909 7.09095C112.909 7.69345 113.398 8.18183 114 8.18183H124.909C125.512 8.18183 126 7.69345 126 7.09095C126 6.4885 125.512 6.00007 124.909 6.00007ZM124.909 16.909H114C113.398 16.909 112.909 17.3974 112.909 17.9999C112.909 18.6023 113.398 19.0908 114 19.0908H124.909C125.512 19.0908 126 18.6023 126 17.9999C126 17.3974 125.512 16.909 124.909 16.909ZM108.873 15.0425L105.241 18.6304L103.876 17.2123C103.457 16.7791 102.766 16.7676 102.333 17.1866C101.899 17.6057 101.888 18.2965 102.307 18.7297L104.438 20.9453C104.539 21.048 104.659 21.1298 104.791 21.1859C104.924 21.2421 105.066 21.2715 105.21 21.2726H105.223C105.509 21.2717 105.783 21.1585 105.986 20.9573L110.4 16.5937C110.857 16.2008 110.908 15.5119 110.515 15.0553C110.122 14.5987 109.434 14.5471 108.977 14.94C108.94 14.9718 108.905 15.0061 108.873 15.0425Z" fill="white"/>
</g>
<defs>
<clipPath id="clip0_1_182">
<rect width="24" height="24" fill="white" transform="translate(102)"/>
</clipPath>
</defs>
</svg>
