<svg width="33" height="32" viewBox="0 0 33 32" fill="none" xmlns="http://www.w3.org/2000/svg">
<path d="M16.1129 32C24.9495 32 32.1129 24.8366 32.1129 16C32.1129 7.16344 24.9495 0 16.1129 0C7.27636 0 0.112915 7.16344 0.112915 16C0.112915 24.8366 7.27636 32 16.1129 32Z" fill="#ECEFF1"/>
<path d="M27.755 25.356C27.059 24.806 26.211 24.41 25.291 24.218L20.905 23.338C20.445 23.25 20.113 22.838 20.113 22.358V21.352C20.395 20.956 20.661 20.43 20.939 19.88C21.155 19.454 21.481 18.812 21.643 18.646C22.531 17.754 23.389 16.752 23.655 15.46C23.903 14.248 23.659 13.612 23.373 13.1C23.373 11.822 23.333 10.222 23.031 9.058C22.995 7.482 22.709 6.596 21.989 5.82C21.481 5.27 20.733 5.142 20.131 5.04C19.895 5 19.569 4.944 19.449 4.88C18.383 4.304 17.329 4.022 16.071 4C13.437 4.108 10.199 5.784 9.11495 8.772C8.77895 9.682 8.81295 11.176 8.84095 12.376L8.81495 13.098C8.55695 13.602 8.30295 14.242 8.55295 15.458C8.81695 16.752 9.67495 17.756 10.579 18.66C10.727 18.812 11.061 19.46 11.281 19.888C11.563 20.436 11.831 20.96 12.113 21.354V22.36C12.113 22.838 11.779 23.25 11.317 23.34L6.92695 24.22C6.01295 24.414 5.16495 24.806 4.47095 25.356C4.25495 25.53 4.11895 25.784 4.09695 26.06C4.07495 26.336 4.16695 26.606 4.35295 26.812C7.34095 30.108 11.627 32 16.113 32C20.599 32 24.887 30.11 27.873 26.812C28.059 26.606 28.153 26.334 28.129 26.058C28.118 25.9216 28.0791 25.7889 28.0148 25.6682C27.9505 25.5474 27.862 25.4412 27.755 25.356Z" fill="#455A64"/>
</svg>
